<svg width="8" height="9" viewBox="0 0 8 9" fill="none" xmlns="http://www.w3.org/2000/svg">
<path d="M0.132406 3.73403C0.180367 3.791 0.239269 3.83809 0.305738 3.8726C0.372208 3.90712 0.44494 3.92839 0.519768 3.93518C0.594596 3.94197 0.670049 3.93416 0.741807 3.9122C0.813565 3.89023 0.880218 3.85454 0.937947 3.80717L3.42884 1.76491V8.4374C3.42884 8.58661 3.48903 8.72971 3.59617 8.83522C3.70331 8.94073 3.84863 9 4.00015 9C4.15167 9 4.29698 8.94073 4.40412 8.83522C4.51126 8.72971 4.57145 8.58661 4.57145 8.4374V1.76491L7.06235 3.80717C7.12011 3.85445 7.18677 3.89007 7.25852 3.91198C7.33027 3.9339 7.4057 3.94168 7.4805 3.93489C7.5553 3.9281 7.62801 3.90686 7.69448 3.8724C7.76095 3.83794 7.81987 3.79092 7.86789 3.73403C7.9159 3.67714 7.95207 3.61149 7.97432 3.54084C7.99658 3.47019 8.00448 3.39591 7.99758 3.32225C7.99069 3.24858 7.96913 3.17698 7.93413 3.11152C7.89913 3.04607 7.85139 2.98804 7.79362 2.94076L4.36578 0.127738L4.28009 0.0771034L4.20582 0.0377213C4.07346 -0.0125738 3.92683 -0.0125738 3.79448 0.0377213L3.72021 0.0771034L3.63451 0.127738L0.206676 2.94076C0.148826 2.98799 0.101007 3.04599 0.0659559 3.11145C0.0309051 3.17691 0.00931188 3.24853 0.00241287 3.32222C-0.00448615 3.39591 0.00344473 3.47021 0.0257511 3.54088C0.0480574 3.61154 0.0843011 3.67718 0.132406 3.73403Z" fill="#A7A9BE"/>
</svg>
