<svg width="7" height="4" viewBox="0 0 7 4" fill="none" xmlns="http://www.w3.org/2000/svg">
<path d="M3.48626 3.99999C3.39457 4.0005 3.30368 3.98369 3.2188 3.95054C3.13391 3.91738 3.05671 3.86853 2.99161 3.80679L0.204888 1.14195C0.139931 1.07983 0.0884037 1.00609 0.0532489 0.924927C0.0180941 0.843768 1.36888e-09 0.756782 0 0.668936C-1.36888e-09 0.58109 0.0180941 0.494104 0.0532489 0.412945C0.0884037 0.331786 0.139931 0.258043 0.204888 0.195927C0.269846 0.13381 0.346962 0.0845365 0.431833 0.0509193C0.516704 0.0173021 0.607668 -1.30901e-09 0.699532 0C0.791396 1.30901e-09 0.88236 0.0173021 0.967231 0.0509193C1.0521 0.0845365 1.12922 0.13381 1.19418 0.195927L3.48626 2.40108L5.78531 0.282534C5.84939 0.214388 5.9275 0.159619 6.01473 0.121655C6.10196 0.0836898 6.19645 0.0633455 6.29228 0.0618937C6.38811 0.0604418 6.48323 0.0779133 6.57167 0.113216C6.66012 0.14852 6.74 0.200895 6.80631 0.267066C6.87263 0.333237 6.92395 0.41178 6.95707 0.497784C6.9902 0.583788 7.0044 0.675402 6.99881 0.766897C6.99322 0.858392 6.96794 0.947799 6.92457 1.02953C6.88119 1.11126 6.82065 1.18355 6.74673 1.24188L3.96 3.81345C3.83259 3.93091 3.66322 3.99761 3.48626 3.99999Z" fill="#A7A9BE"/>
</svg>
