<svg width="18" height="18" viewBox="0 0 18 18" fill="none" xmlns="http://www.w3.org/2000/svg">
<path d="M17.296 17.0391C17.296 17.294 17.1947 17.5384 17.0145 17.7186C16.8343 17.8988 16.5899 18 16.3351 18H0.960887C0.706044 18 0.461639 17.8988 0.281437 17.7186C0.101236 17.5384 2.31295e-07 17.294 2.31295e-07 17.0391V6.94019C-0.000101358 6.79376 0.0332632 6.64925 0.0975454 6.51769C0.161828 6.38613 0.255327 6.271 0.370902 6.18109L8.058 0.202453C8.22667 0.0712394 8.43428 0 8.64798 0C8.86168 0 9.06929 0.0712394 9.23797 0.202453L16.9251 6.18109C17.0406 6.271 17.1341 6.38613 17.1984 6.51769C17.2627 6.64925 17.2961 6.79376 17.296 6.94019V17.0391ZM15.3742 16.0782V7.4091L8.64798 2.17804L1.92177 7.4091V16.0782H15.3742Z" fill="#0001FC"/>
</svg>
